<svg width="96" height="96" viewBox="0 0 96 96" fill="none" xmlns="http://www.w3.org/2000/svg" role="img" aria-labelledby="title desc">
  <title id="title">CareSlotly mark</title>
  <desc id="desc">A teal healthcare appointment logo with a heart pulse and calendar slot.</desc>
  <rect width="96" height="96" rx="24" fill="#008080"/>
  <path d="M48 73C43.5 68.7 31 58.6 25.6 51.2C20.4 44.1 21.1 34.5 27.3 29.4C33.1 24.7 41 26.2 45.5 31.8L48 34.9L50.5 31.8C55 26.2 62.9 24.7 68.7 29.4C74.9 34.5 75.6 44.1 70.4 51.2C65 58.6 52.5 68.7 48 73Z" fill="white"/>
  <path d="M24 49H37.2L41.1 40L48.2 59L53.2 47.2H72" stroke="#9FF3E8" stroke-width="5" stroke-linecap="round" stroke-linejoin="round"/>
  <rect x="60" y="12" width="22" height="22" rx="7" fill="#9FF3E8"/>
  <path d="M66 23H76" stroke="#006666" stroke-width="3" stroke-linecap="round"/>
</svg>
